Coordinates
version=1
nRows=6
nColumns=36
inDegrees=yes

Units are S.I. units (second, meters, Newtons, ...)
If the header above contains a line with 'inDegrees', this indicates whether rotational values are in degrees (yes) or radians (no).

endheader
time	pelvis_tilt	pelvis_list	pelvis_rotation	pelvis_tx	pelvis_ty	pelvis_tz	hip_flexion_r	hip_adduction_r	hip_rotation_r	knee_angle_r	knee_angle_r_beta	ankle_angle_r	subtalar_angle_r	mtp_angle_r	hip_flexion_l	hip_adduction_l	hip_rotation_l	knee_angle_l	knee_angle_l_beta	ankle_angle_l	subtalar_angle_l	mtp_angle_l	lumbar_extension	lumbar_bending	lumbar_rotation	arm_flex_r	arm_add_r	arm_rot_r	elbow_flex_r	pro_sup_r	arm_flex_l	arm_add_l	arm_rot_l	elbow_flex_l	pro_sup_l
      0.98000000	     -7.17826469	     -3.70036796	    -12.38792127	      0.51835177	      0.88145357	     -0.22747905	     -7.10320215	      7.57189215	     14.99430970	     13.32806399	      0.23261860	     14.62250125	     -4.41204517	     -6.84298456	     36.16988344	     -8.16969082	     -0.07032663	      7.35410922	      0.12835342	     10.08737700	     -6.85255154	     -6.84298456	     -3.70574885	      5.33751096	      7.17670014	      4.66091204	    -15.89598280	     10.05967640	     47.41837173	    105.43366292	     -9.31193570	    -11.72946017	     -7.59203408	     37.86278952	     98.95391472
      0.99000000	     -7.21086940	     -3.61259791	    -12.55131010	      0.52964843	      0.88010287	     -0.22758793	     -7.54771420	      7.17098211	     14.21753372	     13.78721383	      0.24063228	     15.17464086	     -2.76427444	     -6.88236786	     36.05367617	     -7.87266802	     -0.09684986	      8.43193430	      0.14716502	      9.67173613	     -8.22648679	     -6.88236786	     -3.66310967	      4.78845976	      7.27591862	      3.57969416	    -15.71353767	      8.83594089	     48.02053065	    105.34848307	     -8.84890756	    -11.75713650	     -7.65514681	     37.57012114	     98.81446069
      1.00000000	     -7.25960657	     -3.52032880	    -12.68641843	      0.54114009	      0.87871668	     -0.22766566	     -8.09549658	      6.86296812	     14.15030595	     14.04757008	      0.24517635	     14.87206883	     -2.65577987	     -6.88635562	     35.94320116	     -7.59182306	     -0.21151922	      9.53603071	      0.16643513	      9.50728314	     -8.43625541	     -6.88635562	     -3.56184539	      4.15068510	      7.02222673	      2.92962169	    -15.64020728	      8.87144175	     47.90968244	    105.34625253	     -8.69462672	    -11.87467693	     -7.73248159	     37.52731392	     98.78571102
      1.01000000	     -7.42753267	     -3.45350585	    -12.76414283	      0.55286611	      0.87707775	     -0.22783348	     -8.47501661	      6.60850868	     13.79561076	     14.35646360	      0.25056756	     14.34842275	     -2.51599108	     -6.89323863	     35.98249683	     -7.33859146	     -0.45450550	     10.56887077	      0.18446159	      9.10070272	     -8.51657092	     -6.89323863	     -3.29458750	      3.54116411	      6.75664412	      2.14865147	    -15.54338983	      8.74608335	     47.87520203	    105.32673706	     -8.53275047	    -11.94535278	     -7.93173204	     37.48072844	     98.71908653
      1.02000000	     -7.60546253	     -3.33894960	    -12.83642325	      0.56467618	      0.87545865	     -0.22804015	     -8.81390259	      6.33804833	     13.72925431	     14.73383976	      0.25715402	     13.88609458	     -2.40036673	     -6.89630294	     35.87726009	     -7.01085967	     -0.26050295	     11.22087463	      0.19584121	      8.60011570	     -8.28997609	     -6.89630294	     -3.03958557	      2.81333299	      6.47005486	      1.36035832	    -15.44713289	      8.72450074	     47.73336616	    105.30964535	     -8.37887247	    -12.06897284	     -8.08169205	     37.47832797	     98.67722850
      1.03000000	     -7.90663948	     -3.22878002	    -12.82857926	      0.57666664	      0.87379260	     -0.22834128	     -8.91438219	      6.08333081	     13.07115887	     15.22828084	      0.26578364	     12.93987190	     -2.30682715	     -6.90593930	     35.91803915	     -6.71831533	     -0.38201621	     11.69644345	      0.20414145	      7.43475311	     -7.87559303	     -6.90593930	     -2.59299543	      2.07272671	      6.16139161	      0.41383056	    -15.26894442	      8.38278754	     47.61361546	    105.23997264	     -8.21435969	    -12.10671358	     -8.43914835	     37.44279073	     98.54038727
